<svg xmlns="http://www.w3.org/2000/svg" version="1.1" xmlns:xlink="http://www.w3.org/1999/xlink" xmlns:svgjs="http://svgjs.dev/svgjs" width="1000" height="413" viewBox="0 0 1000 413"><g transform="matrix(1,0,0,1,0.1066666666666265,0.06325623739920161)"><svg viewBox="0 0 375 155" data-background-color="#ffffff" preserveAspectRatio="xMidYMid meet" height="413" width="1000" xmlns="http://www.w3.org/2000/svg" xmlns:xlink="http://www.w3.org/1999/xlink"><g id="tight-bounds" transform="matrix(1,0,0,1,-0.03976036071776434,-0.023740234374997726)"><svg viewBox="0 0 375.07952880859375 155.04737854003906" height="155.04737854003906" width="375.07952880859375"><g><svg></svg></g><g><svg viewBox="0 0 375.07952880859375 155.04737854003906" height="155.04737854003906" width="375.07952880859375"><g transform="matrix(1,0,0,1,-10.220239639282227,-51.58251953125)"><path xmlns="http://www.w3.org/2000/svg" d="M10.22 195.617v-144.034h375.08v144.034l-18.494 0 0-3.612h14.882v-136.81h-367.856v136.81l23.685 0 0 3.612z" fill="#31c48d" fill-rule="nonzero" stroke="none" stroke-width="1" stroke-linecap="butt" stroke-linejoin="miter" stroke-miterlimit="10" stroke-dasharray="" stroke-dashoffset="0" font-family="none" font-weight="none" font-size="none" text-anchor="none" style="mix-blend-mode: normal" data-fill-palette-color="tertiary"></path><g><path xmlns="http://www.w3.org/2000/svg" d="M61.121 200.284l-1.676-4.696h-7.818l-1.624 4.696h-1.65l6.422-17.768h1.548l6.651 17.768zM55.46 184.445l-3.401 9.874h6.929zM93.596 182.973v0l-0.305 1.447c-1.303-0.288-2.411-0.432-3.325-0.432v0c-3.283 0-4.924 0.998-4.924 2.995v0c0 0.761 0.24 1.345 0.721 1.752 0.484 0.406 1.093 0.739 1.827 1 0.738 0.264 1.53 0.501 2.376 0.711 0.846 0.213 1.633 0.498 2.361 0.853v0c1.709 0.846 2.564 2.141 2.563 3.883 0 1.743-0.651 3.063-1.954 3.96v0c-1.117 0.778-2.589 1.168-4.417 1.168v0c-2.268 0-4.18-0.516-5.736-1.549v0l0.66-1.294c0.457 0.322 1.108 0.621 1.954 0.898 0.846 0.281 1.667 0.421 2.462 0.422v0c1.557 0 2.784-0.254 3.681-0.762v0c1.083-0.626 1.625-1.523 1.624-2.691v0c0-0.863-0.242-1.537-0.726-2.02-0.481-0.481-1.09-0.87-1.827-1.168-0.734-0.294-1.525-0.548-2.371-0.761-0.846-0.21-1.633-0.476-2.361-0.797v0c-1.709-0.745-2.564-1.853-2.563-3.325 0-1.472 0.508-2.64 1.523-3.503 1.015-0.863 2.454-1.295 4.315-1.295v0c1.438 0 2.919 0.169 4.442 0.508zM102.206 197.035v0c-0.305-0.812-0.457-1.76-0.457-2.843v0c0-2.081 0.584-3.719 1.751-4.914 1.168-1.191 2.631-1.787 4.391-1.787v0c2.758 0 4.569 1.117 5.432 3.351v0c0.322 0.812 0.482 1.76 0.483 2.843v0c0 2.081-0.584 3.718-1.752 4.909-1.168 1.195-2.631 1.792-4.391 1.792v0c-2.758 0-4.577-1.117-5.457-3.351zM103.399 194.015c0 1.557 0.401 2.762 1.203 3.614 0.805 0.856 1.843 1.284 3.112 1.284 1.269 0 2.327-0.454 3.173-1.36 0.846-0.904 1.269-2.134 1.269-3.691 0-1.557-0.398-2.763-1.193-3.619-0.795-0.853-1.833-1.279-3.112-1.28-1.276 0-2.337 0.452-3.183 1.356-0.846 0.907-1.269 2.139-1.269 3.696zM121.725 187.593v-2.996c0-2.301 1.269-3.452 3.808-3.452v0c0.66 0 1.244 0.068 1.751 0.203v0l-0.254 1.422c-0.575-0.085-1.061-0.127-1.457-0.127-0.399 0-0.76 0.068-1.081 0.203v0c-0.745 0.338-1.117 1.117-1.117 2.335v0 2.412h3.148v1.472h-3.148v11.219h-1.65v-11.219h-1.421l0.228-1.472zM138.813 198.457l0.305 1.37c-0.305 0.305-0.855 0.457-1.65 0.457v0c-1.117 0-1.87-0.288-2.259-0.863v0c-0.66-0.626-0.99-1.472-0.99-2.538v0-7.818h-1.422l0.229-1.472h1.193v-2.513l1.65-0.153v2.666h2.944v1.472h-2.944v8.224c0 0.981 0.508 1.472 1.523 1.472v0c0.44 0 0.914-0.102 1.421-0.304zM157.221 200.284l-2.995-10.204-3.402 10.204h-1.523l-4.188-12.691 1.853-0.127 3.224 10.737 3.3-10.61 1.599-0.127 2.843 10.762 3.731-10.635 1.954-0.127-4.873 12.818zM170.603 190.182l-0.457-1.219c1.845-0.914 3.461-1.396 4.848-1.447v0c1.1 0 1.951 0.139 2.554 0.417 0.599 0.281 1.085 0.67 1.457 1.167 0.372 0.501 0.558 1.2 0.558 2.097v0 9.087h-1.65v-0.964c-2.318 0.711-3.807 1.066-4.467 1.066v0c-0.034 0-0.059 0-0.076 0v0c-1.523 0-2.564-0.465-3.123-1.396v0c-0.203-0.338-0.316-0.668-0.34-0.99-0.027-0.322-0.041-0.592-0.04-0.813v0c0-0.609 0.237-1.156 0.71-1.639 0.474-0.481 1.041-0.805 1.701-0.975v0c1.117-0.288 2.995-0.541 5.635-0.762v0-2.056c0-1.845-0.965-2.767-2.894-2.766v0c-1.354 0-2.826 0.398-4.416 1.193zM171.415 197.39v0c0 1.218 0.838 1.828 2.513 1.828v0c1.337 0 2.665-0.288 3.985-0.863v0-3.63c-2.64 0.372-4.273 0.66-4.899 0.863v0c-1.066 0.338-1.599 0.939-1.599 1.802zM194.341 187.846l-0.66 1.523c-0.271-0.152-0.558-0.228-0.863-0.228-0.305 0-0.474 0.008-0.508 0.025v0c-0.643 0-1.291 0.232-1.944 0.696-0.65 0.467-1.203 0.988-1.66 1.563v0 8.859h-1.65v-12.691l1.65-0.127v2.843c0.626-0.795 1.159-1.354 1.599-1.676v0c0.812-0.609 1.591-0.931 2.335-0.964v0c0.102-0.017 0.288-0.025 0.559-0.026 0.271 0 0.651 0.068 1.142 0.203zM200.971 194.04v0.406c0 2.978 1.421 4.467 4.264 4.467v0c1.201 0 2.301-0.161 3.3-0.482v0c0.254-0.085 0.432-0.152 0.533-0.203v0l0.381 1.345c-0.592 0.355-1.667 0.609-3.224 0.762v0c-0.44 0.034-0.905 0.051-1.396 0.051v0c-1.421 0-2.606-0.355-3.553-1.066v0c-1.303-0.965-1.954-2.572-1.955-4.823 0-2.251 0.587-3.982 1.762-5.194 1.178-1.208 2.604-1.812 4.279-1.812 1.675 0 2.936 0.541 3.782 1.625v0c0.643 0.863 0.965 2.005 0.965 3.426v0c0 0.338-0.017 0.694-0.051 1.066v0h-9.062c-0.017 0.135-0.025 0.279-0.025 0.432zM205.464 189.065v0c-1.049 0-1.946 0.316-2.691 0.949-0.745 0.636-1.261 1.454-1.548 2.452v0h7.386c-0.085-1.878-0.812-2.97-2.183-3.274v0c-0.305-0.085-0.626-0.127-0.964-0.127zM241.132 187.618l-0.127-3.224c-0.863-0.338-1.768-0.508-2.716-0.507v0c-1.912 0-3.455 0.702-4.63 2.106-1.178 1.405-1.767 3.461-1.766 6.169 0 2.708 0.618 4.603 1.853 5.685v0c0.846 0.761 2.022 1.142 3.528 1.143v0c0.965 0 1.934-0.11 2.909-0.33 0.971-0.22 1.635-0.432 1.99-0.635v0l0.355 1.244c-0.745 0.491-2.048 0.829-3.909 1.015v0c-0.541 0.068-1.112 0.102-1.711 0.102-0.602 0-1.31-0.098-2.122-0.295-0.812-0.193-1.565-0.586-2.259-1.178v0c-1.574-1.337-2.361-3.562-2.36-6.675 0-3.114 0.741-5.522 2.223-7.224 1.479-1.699 3.403-2.548 5.772-2.549v0c1.32 0 2.454 0.262 3.402 0.787v0c0.355 0.186 0.635 0.389 0.837 0.609v0 3.681zM249.031 197.035v0c-0.305-0.812-0.457-1.76-0.457-2.843v0c0-2.081 0.584-3.719 1.752-4.914 1.168-1.191 2.631-1.787 4.391-1.787v0c2.758 0 4.569 1.117 5.432 3.351v0c0.322 0.812 0.482 1.76 0.482 2.843v0c0 2.081-0.584 3.718-1.751 4.909-1.168 1.195-2.631 1.792-4.391 1.792v0c-2.758 0-4.577-1.117-5.458-3.351zM250.224 194.015c0 1.557 0.403 2.762 1.209 3.614 0.802 0.856 1.838 1.284 3.106 1.284 1.269 0 2.327-0.454 3.173-1.36 0.846-0.904 1.269-2.134 1.269-3.691 0-1.557-0.398-2.763-1.193-3.619-0.795-0.853-1.831-1.279-3.106-1.28-1.279 0-2.342 0.452-3.189 1.356-0.846 0.907-1.269 2.139-1.269 3.696zM272.363 188.989v0c-0.948 0.051-1.971 0.364-3.071 0.939v0 10.356h-1.65v-12.691l1.65-0.127v1.421c1.134-0.863 2.234-1.32 3.3-1.371v0c1.794 0 3.029 0.448 3.706 1.346v0c1.286-0.846 2.53-1.295 3.731-1.346v0c1.032 0 1.828 0.127 2.386 0.381 0.558 0.254 1.02 0.613 1.386 1.076 0.362 0.467 0.543 1.124 0.543 1.97v0 9.341h-1.65v-8.909c0-0.626-0.144-1.108-0.431-1.447v0c-0.525-0.626-1.269-0.939-2.234-0.939v0c-1.015 0-2.098 0.305-3.249 0.913v0c0.085 0.338 0.127 0.685 0.127 1.041v0 9.341h-1.65v-8.909c0-0.626-0.135-1.108-0.406-1.447v0c-0.541-0.626-1.371-0.939-2.488-0.939zM301.127 198.507c-0.558 0.558-1.179 0.976-1.863 1.254-0.687 0.281-1.276 0.438-1.766 0.472-0.491 0.034-0.973 0.051-1.447 0.051-0.474 0-0.99-0.042-1.549-0.127v0 6.346l-1.649 0.127v-18.377c0.372-0.118 0.944-0.296 1.715-0.533 0.768-0.237 1.589-0.355 2.463-0.356 0.87 0 1.623 0.071 2.259 0.213 0.633 0.146 1.22 0.421 1.761 0.828v0c1.269 0.981 1.904 2.606 1.904 4.873 0 2.268-0.609 4.011-1.828 5.229zM294.502 189.268v9.595c0.508 0.118 1.049 0.178 1.625 0.177v0c1.658 0 2.936-0.491 3.833-1.472 0.897-0.981 1.345-2.361 1.345-4.137 0-1.777-0.457-3.046-1.371-3.808v0c-0.643-0.525-1.467-0.787-2.472-0.787-1.009 0-1.995 0.144-2.96 0.432zM310.372 190.182l-0.457-1.219c1.845-0.914 3.461-1.396 4.848-1.447v0c1.1 0 1.949 0.139 2.549 0.417 0.602 0.281 1.09 0.67 1.462 1.167 0.372 0.501 0.558 1.2 0.558 2.097v0 9.087h-1.65v-0.964c-2.318 0.711-3.807 1.066-4.467 1.066v0c-0.034 0-0.059 0-0.076 0v0c-1.523 0-2.564-0.465-3.122-1.396v0c-0.203-0.338-0.318-0.668-0.346-0.99-0.024-0.322-0.036-0.592-0.035-0.813v0c0-0.609 0.237-1.156 0.711-1.639 0.474-0.481 1.041-0.805 1.7-0.975v0c1.117-0.288 2.995-0.541 5.635-0.762v0-2.056c0-1.845-0.965-2.767-2.893-2.766v0c-1.354 0-2.826 0.398-4.417 1.193zM311.184 197.39v0c0 1.218 0.838 1.828 2.513 1.828v0c1.337 0 2.665-0.288 3.985-0.863v0-3.63c-2.64 0.372-4.273 0.66-4.899 0.863v0c-1.066 0.338-1.599 0.939-1.599 1.802zM328.475 187.466v1.523c1.269-0.931 2.471-1.421 3.605-1.473v0c1.032 0 1.828 0.127 2.386 0.381 0.558 0.254 1.019 0.613 1.38 1.076 0.366 0.467 0.548 1.124 0.549 1.97v0 9.341h-1.65v-8.909c0-0.626-0.135-1.108-0.406-1.447v0c-0.541-0.626-1.371-0.939-2.488-0.939v0c-1.066 0.051-2.191 0.398-3.376 1.04v0 10.255h-1.65v-12.691zM348.203 200.284l-4.518-12.691 1.853-0.127 3.782 11.625 4.873-11.498h1.777l-8.427 19.037h-1.548l2.792-6.346z" fill="#adbfb8" fill-rule="nonzero" stroke="none" stroke-width="1" stroke-linecap="butt" stroke-linejoin="miter" stroke-miterlimit="10" stroke-dasharray="" stroke-dashoffset="0" font-family="none" font-weight="none" font-size="none" text-anchor="none" style="mix-blend-mode: normal" data-fill-palette-color="secondary"></path></g></g><g transform="matrix(1,0,0,1,29.331764404296877,49.847053796030735)"><svg viewBox="0 0 316.416 55.353270947977585" height="55.353270947977585" width="316.416"><g><svg viewBox="0 0 488.6561092695763 85.4846594887218" height="55.353270947977585" width="316.416"><g transform="matrix(1,0,0,1,172.24010926957632,11.814450045112782)"><svg viewBox="0 0 316.416 61.85575939849624" height="61.85575939849624" width="316.416"><g id="textblocktransform"><svg viewBox="0 0 316.416 61.85575939849624" height="61.85575939849624" width="316.416" id="textblock"><g><svg viewBox="0 0 316.416 61.85575939849624" height="61.85575939849624" width="316.416"><g transform="matrix(1,0,0,1,0,0)"><svg width="316.416" viewBox="2.7799999713897705 -29.31999969482422 152.61000061035156 29.829999923706055" height="61.85575939849624" data-palette-color="#31c48d"><path d="M2.78-14.4L2.78-14.4Q2.78-17.5 4.04-20.21 5.3-22.92 7.63-24.95 9.96-26.98 13.27-28.15 16.58-29.32 20.7-29.32L20.7-29.32Q24.83-29.32 28.14-28.15 31.45-26.98 33.78-24.95 36.11-22.92 37.37-20.21 38.62-17.5 38.62-14.4L38.62-14.4Q38.62-11.3 37.37-8.59 36.11-5.88 33.78-3.86 31.45-1.83 28.14-0.66 24.83 0.51 20.7 0.51L20.7 0.51Q16.58 0.51 13.27-0.66 9.96-1.83 7.63-3.86 5.3-5.88 4.04-8.59 2.78-11.3 2.78-14.4ZM10.38-14.4L10.38-14.4Q10.38-12.67 11.07-11.12 11.77-9.57 13.1-8.39 14.43-7.2 16.35-6.51 18.26-5.81 20.7-5.81L20.7-5.81Q23.14-5.81 25.06-6.51 26.98-7.2 28.31-8.39 29.64-9.57 30.33-11.12 31.03-12.67 31.03-14.4L31.03-14.4Q31.03-16.14 30.33-17.7 29.64-19.26 28.31-20.45 26.98-21.63 25.06-22.33 23.14-23.02 20.7-23.02L20.7-23.02Q18.26-23.02 16.35-22.33 14.43-21.63 13.1-20.45 11.77-19.26 11.07-17.7 10.38-16.14 10.38-14.4ZM45.92 0L45.92-28.81 53.15-28.81 53.15-26.37Q56.03-28 58.65-28.66 61.28-29.32 63.79-29.32L63.79-29.32Q67.09-29.32 69.89-28.36 72.7-27.39 74.75-25.49 76.8-23.58 77.96-20.74 79.12-17.9 79.12-14.16L79.12-14.16 79.12 0 71.92 0 71.92-12.99Q71.92-15.36 71.25-17.22 70.58-19.09 69.32-20.37 68.06-21.66 66.27-22.33 64.48-23 62.25-23L62.25-23Q61.08-23 59.85-22.75 58.62-22.51 57.43-22.06 56.25-21.61 55.15-20.94 54.05-20.26 53.15-19.41L53.15-19.41 53.15 0 45.92 0ZM84.22 0L101.87-22.8 87.1-22.8 87.1-28.81 115.28-28.81 97.5-6.01 114.3-6.01 114.3 0 84.22 0ZM119.55-14.4L119.55-14.4Q119.55-17.5 120.81-20.21 122.06-22.92 124.39-24.95 126.73-26.98 130.03-28.15 133.34-29.32 137.47-29.32L137.47-29.32Q141.59-29.32 144.9-28.15 148.21-26.98 150.54-24.95 152.87-22.92 154.13-20.21 155.39-17.5 155.39-14.4L155.39-14.4Q155.39-11.3 154.13-8.59 152.87-5.88 150.54-3.86 148.21-1.83 144.9-0.66 141.59 0.51 137.47 0.51L137.47 0.51Q133.34 0.51 130.03-0.66 126.73-1.83 124.39-3.86 122.06-5.88 120.81-8.59 119.55-11.3 119.55-14.4ZM127.14-14.4L127.14-14.4Q127.14-12.67 127.84-11.12 128.53-9.57 129.86-8.39 131.19-7.2 133.11-6.51 135.03-5.81 137.47-5.81L137.47-5.81Q139.91-5.81 141.83-6.51 143.74-7.2 145.07-8.39 146.4-9.57 147.1-11.12 147.8-12.67 147.8-14.4L147.8-14.4Q147.8-16.14 147.1-17.7 146.4-19.26 145.07-20.45 143.74-21.63 141.83-22.33 139.91-23.02 137.47-23.02L137.47-23.02Q135.03-23.02 133.11-22.33 131.19-21.63 129.86-20.45 128.53-19.26 127.84-17.7 127.14-16.14 127.14-14.4Z" opacity="1" transform="matrix(1,0,0,1,0,0)" fill="#31c48d" class="wordmark-text-0" data-fill-palette-color="primary" id="text-0"></path></svg></g></svg></g></svg></g></svg></g><g><svg viewBox="0 0 157.63744901381693 85.4846594887218" height="85.4846594887218" width="157.63744901381693"><g><svg xmlns="http://www.w3.org/2000/svg" data-name="Layer 1" viewBox="13.199999809265137 29.5 72.60000610351562 39.37000274658203" x="0" y="0" height="85.4846594887218" width="157.63744901381693" class="icon-icon-0" data-fill-palette-color="accent" id="icon-0"><polygon points="39.6 68.87 42.82 68.87 59.4 29.5 56.18 29.5 39.6 68.87" fill="#31c48d" data-fill-palette-color="accent"></polygon><polygon points="66 29.5 66 34.14 81.13 49.17 66 64.21 66 68.84 85.8 49.17 66 29.5" fill="#31c48d" data-fill-palette-color="accent"></polygon><polygon points="33 68.84 33 64.21 17.87 49.17 33 34.14 33 29.5 13.2 49.17 33 68.84" fill="#31c48d" data-fill-palette-color="accent"></polygon></svg></g></svg></g></svg></g></svg></g></svg></g><defs></defs></svg><rect width="375.07952880859375" height="155.04737854003906" fill="none" stroke="none" visibility="hidden"></rect></g></svg></g></svg>